<svg xmlns="http://www.w3.org/2000/svg" viewBox="0 0 48 48"><defs><style>.cls-1{fill:#919191;}.cls-2{fill:#7c7d7d;}.cls-3{fill:#dad7e5;}.cls-4{fill:#edebf2;}.cls-5{fill:#374f68;}.cls-6{fill:#425b72;}</style></defs><title>Trolley</title><g id="Trolley"><path class="cls-1" d="M41,38H12a4,4,0,0,1-4-4c0-3.85,5-5.07,5-3a1,1,0,0,1-1,1,2,2,0,0,0,0,4H41A1,1,0,0,1,41,38Z"/><path class="cls-2" d="M41.86,37.5c-.4-.71,1.79-.5-29.86-.5a2,2,0,0,1-1.93-2.5A2,2,0,0,0,12,36H41A1,1,0,0,1,41.86,37.5Z"/><path class="cls-1" d="M8,11.14,7.13,5H2A1,1,0,0,1,2,3H8a1,1,0,0,1,1,.86l1,7A1,1,0,0,1,8,11.14Z"/><path class="cls-3" d="M47,13c-4.08,19.36-3.4,16.15-4,19H11L8,11Z"/><path class="cls-4" d="M47,13,43.42,30H22.2a6,6,0,0,1-5.94-5.15L14.33,11.32Z"/><path class="cls-5" d="M19,43a3,3,0,1,1-5.56-1.56A3,3,0,0,1,19,43Z"/><path class="cls-6" d="M17.56,45.56a3,3,0,0,1-4.12-4.12A3,3,0,0,1,17.56,45.56Z"/><circle class="cls-6" cx="34" cy="43" r="3"/><path class="cls-5" d="M34,40a3,3,0,0,0-2.55,1.45,3,3,0,0,1,4.1,4.1A3,3,0,0,0,34,40Z"/></g></svg>